<svg height="512pt" viewBox="-21 0 512 512" width="512pt" xmlns="http://www.w3.org/2000/svg"><path d="m460.292969 473.382812v28.453126h-450.128907v-491.671876h450.128907v382.597657" fill="#f9f9f9"/><path d="m10.164062 10.164062h450.128907v77.011719h-450.128907zm0 0" fill="#b5bcc9"/><path d="m358.753906 173.980469-119.546875 113.109375c-2.234375 2.113281-5.726562 2.113281-7.960937 0l-119.542969-113.109375h247.050781v159.964843h-247.050781v-159.964843h202.054687" fill="#ffb48e"/><path d="m0 501.835938c0 5.613281 4.550781 10.164062 10.164062 10.164062h450.128907c5.609375 0 10.160156-4.550781 10.160156-10.164062v-28.453126c0-13.046874-20.324219-13.066406-20.324219 0v18.292969h-429.804687v-394.335937h429.804687v295.421875c0 13.046875 20.324219 13.066406 20.324219 0v-382.597657c0-5.613281-4.550781-10.164062-10.160156-10.164062h-450.128907c-5.613281 0-10.164062 4.550781-10.164062 10.164062zm20.324219-424.820313v-56.691406h429.804687v56.691406zm0 0"/><path d="m46.3125 38.511719c-5.433594 0-10.070312 4.542969-10.144531 9.984375-.074219 5.636718 4.542969 10.300781 10.167969 10.304687 5.609374.007813 10.25-4.765625 10.132812-10.371093-.113281-5.394532-4.765625-9.917969-10.15625-9.917969zm0 0"/><path d="m77.53125 38.511719c-5.433594 0-10.070312 4.542969-10.144531 9.984375-.074219 5.644531 4.542969 10.292968 10.171875 10.296875 5.609375.007812 10.246094-4.753907 10.128906-10.363281-.113281-5.398438-4.761719-9.917969-10.15625-9.917969zm0 0"/><path d="m108.75 38.511719c-5.429688 0-10.070312 4.546875-10.144531 9.984375-.070313 5.640625 4.546875 10.300781 10.171875 10.308594 5.605468.003906 10.246094-4.765626 10.128906-10.375-.113281-5.394532-4.765625-9.917969-10.15625-9.917969zm0 0"/><path d="m460.292969 423.015625c-5.433594 0-10.074219 4.558594-10.144531 9.992187-.074219 5.636719 4.542968 10.296876 10.167968 10.300782 5.605469.007812 10.246094-4.761719 10.128906-10.367188-.113281-5.394531-4.765624-9.925781-10.152343-9.925781zm0 0"/><path d="m368.914062 174.007812c0-5.539062-4.617187-10.191406-10.160156-10.191406h-247.050781c-5.703125 0-10.203125 4.453125-10.164063 10.246094v159.882812c0 5.535157 4.640626 10.164063 10.164063 10.164063h247.050781c5.523438 0 10.160156-4.628906 10.160156-10.164063zm-20.324218 135.046876-56.675782-57.84375 56.675782-53.625zm-124.328125-14.582032c6.148437 5.816406 15.78125 5.816406 21.929687 0l30.957032-29.289062 57.417968 58.601562h-198.679687l57.421875-58.601562zm108.964843-110.328125-98 92.71875-97.996093-92.71875zm-154.683593 67.066407-56.679688 57.84375v-111.46875zm0 0"/><path d="m421.949219 237.257812h-28.453125c-13.050782 0-13.070313 20.324219 0 20.324219h28.453125c13.046875 0 13.066406-20.324219 0-20.324219zm0 0"/><path d="m396.234375 212.460938c2.074219 0 4.171875-.632813 5.980469-1.953126l22.992187-16.761718c10.542969-7.6875-1.417969-24.125-11.976562-16.425782l-22.992188 16.765626c-7.832031 5.710937-3.539062 18.375 5.996094 18.375zm0 0"/><path d="m425.207031 297.945312-22.992187-16.761718c-10.546875-7.691406-22.535156 8.722656-11.976563 16.421875l22.992188 16.761719c10.382812 7.574218 22.566406-8.699219 11.976562-16.421876zm0 0"/><path d="m78.394531 237.257812h-28.457031c-13.046875 0-13.066406 20.324219 0 20.324219h28.457031c13.046875 0 13.066407-20.324219 0-20.324219zm0 0"/><path d="m46.683594 193.746094 22.992187 16.761718c10.382813 7.574219 22.5625-8.699218 11.972657-16.421874l-22.992188-16.765626c-10.542969-7.6875-22.53125 8.726563-11.972656 16.425782zm0 0"/><path d="m69.675781 281.183594-22.992187 16.761718c-10.433594 7.609376 1.453125 24.097657 11.972656 16.421876l22.992188-16.761719c10.546874-7.6875-1.414063-24.121094-11.972657-16.421875zm0 0"/><path d="m165.9375 375.550781v34.042969c0 13.050781 20.324219 13.066406 20.324219 0v-34.042969c0-13.046875-20.324219-13.066406-20.324219 0zm0 0"/><path d="m225.8125 375.550781v44.714844c0 13.046875 20.328125 13.066406 20.328125 0v-44.714844c0-13.046875-20.328125-13.066406-20.328125 0zm0 0"/><path d="m285.691406 375.550781v22.359375c0 13.046875 20.324219 13.066406 20.324219 0v-22.359375c0-13.046875-20.324219-13.066406-20.324219 0zm0 0"/></svg>